<svg width="1848" height="1148" viewBox="0 0 1848 1148" fill="none" xmlns="http://www.w3.org/2000/svg">
<mask id="mask0_7_366" style="mask-type:alpha" maskUnits="userSpaceOnUse" x="0" y="0" width="1848" height="1148">
<rect width="1848" height="1148" rx="25" fill="#EFEBE4"/>
</mask>
<g mask="url(#mask0_7_366)">
<rect width="1848" height="1148" rx="25" fill="white"/>
<g opacity="0.1">
<mask id="mask1_7_366" style="mask-type:alpha" maskUnits="userSpaceOnUse" x="-475" y="-346" width="1064" height="829">
<ellipse cx="471.576" cy="481.126" rx="471.576" ry="481.126" transform="matrix(0.85523 0.518249 -0.720245 0.693719 0.0546875 -509.574)" fill="#9090BF"/>
</mask>
<g mask="url(#mask1_7_366)">
<path d="M-1098.46 -180.006C-1093.26 -185.017 -1088.09 -189.997 -1082.95 -194.945C-969.733 -180.001 -859.496 -159.608 -751.761 -134.231C-634.658 -106.654 -522.562 -71.6804 -410.079 -37.0777C-361.204 -21.9723 -311.675 -7.68029 -261.019 4.42253C-203.898 18.0246 -142.599 18.5883 -77.5735 3.4213C-31.4565 -7.33133 12.2875 -24.8127 55.1527 -44.943C109.125 -70.4361 160.183 -100.113 212.007 -128.873C278.16 -165.73 344.567 -202.281 407.73 -243.065C465.792 -280.592 523.64 -318.097 582.468 -354.706C636.58 -388.428 692.852 -419.632 752.875 -444.33C857.296 -487.323 955.084 -494.126 1045.5 -460.347C1086.51 -445.021 1123.43 -425.214 1157.69 -402.645C1219.54 -362.141 1279.92 -320.409 1341.78 -279.905C1440.48 -215.105 1545.63 -157.434 1663.37 -112.994C1678.81 -107.264 1694.71 -102.162 1710.33 -96.7813C1737.37 -80.3937 1764.41 -64.0061 1791.46 -47.6185C1778.25 -51.0868 1764.87 -54.2056 1751.93 -58.1161C1629.48 -94.5255 1518.67 -144.898 1415.7 -204.119C1349.99 -241.823 1286.8 -281.777 1222.72 -321.058C1175.65 -350.039 1128.76 -379.205 1075.64 -402.176C1034.65 -419.91 990.788 -433.036 940.854 -436.084C875.326 -440.118 809.74 -426.802 744.315 -402.051C684.447 -379.526 628.138 -350.31 574.093 -317.756C515.14 -282.13 457.74 -244.505 398.393 -209.42C312.815 -158.636 226.195 -109.24 139.831 -59.5385C92.5586 -32.4041 44.1814 -7.14872 -6.97965 13.2453C-80.6807 42.6554 -153.306 53.3685 -223.916 41.7205C-248.983 37.717 -273.961 32.7088 -296.862 25.3315C-365.116 3.32012 -432.449 -19.9468 -500.168 -42.8426C-633.44 -87.7758 -771.118 -125.705 -916.346 -151.58C-976.357 -162.399 -1037.76 -170.586 -1098.46 -180.006L-1098.46 -180.006Z" fill="#BBBBBB"/>
<path d="M-1083.63 -145.18C-1093.25 -151.005 -1102.67 -157.017 -1112.67 -162.471C-1115.81 -164.226 -1113.57 -165.284 -1112.05 -166.932C-1110.04 -166.473 -1108.11 -165.756 -1106.13 -165.461C-940.981 -146.26 -783.582 -113.16 -633.413 -67.2087C-537.379 -37.7359 -445.609 -2.68414 -353.839 32.3676C-314.507 47.2829 -274.619 61.4776 -230.507 69.7658C-162.569 82.5156 -92.7297 75.4054 -20.3356 47.622C14.8145 34.0028 48.7213 18.2697 81.322 -0.068742C131.053 -28.2832 180.348 -57.3662 229.781 -86.2142C301.851 -128.403 373.922 -170.593 445.972 -212.945C494.764 -241.728 542.887 -271.522 592.307 -299.622C643.952 -328.944 698.028 -353.618 755.056 -372.12C856.108 -405.061 950.159 -408.081 1036.15 -378.498C1066.13 -368.19 1095.62 -356.671 1122.5 -342.646C1174.56 -315.334 1225.31 -286.396 1275.46 -257.064C1367.08 -203.659 1459.69 -151.018 1560.19 -106.897C1634.8 -74.0815 1712.27 -45.1251 1795.46 -23.8877C1788.65 -17.3306 1781.84 -10.7736 1775.03 -4.21656C1772.46 -4.86759 1769.89 -5.51858 1767.2 -6.24065C1651.26 -39.163 1544.71 -84.0784 1443.6 -135.522C1372.2 -171.984 1302.59 -210.537 1232.33 -248.276C1182.15 -275.363 1131.94 -302.614 1076.51 -324.106C1034.08 -340.448 989.328 -352.903 939.462 -357.12C870.693 -362.815 801.074 -350.583 730.775 -327.576C667.721 -307.133 608.765 -278.312 551.998 -245.896C485.372 -207.663 419.14 -168.89 353.281 -129.739C277.349 -84.7505 201.927 -39.1499 126.229 5.98085C79.0828 34.0983 31.2455 61.0412 -20.4181 81.7353C-87.7282 108.669 -153.397 117.097 -217.475 105.78C-256.54 98.8869 -292.112 87.157 -326.247 73.1233C-394.379 45.2908 -461.417 15.8533 -530.588 -10.7947C-699.643 -75.9003 -881.224 -120.479 -1075.26 -144.788C-1078 -145.09 -1080.91 -145.042 -1083.63 -145.18V-145.18Z" fill="#BBBBBB"/>
<path d="M-1017.28 -104.967C-1029 -112.072 -1040.73 -119.176 -1052.45 -126.281C-1049.82 -126.05 -1047.24 -126.147 -1044.71 -125.824C-957.949 -113.912 -873.848 -97.4136 -791.903 -76.63C-642.353 -38.9138 -505.712 15.4682 -375.563 78.3113C-338.088 96.4858 -300.344 114.218 -258.369 126.956C-224.832 137.15 -189.481 143.758 -150.544 142.864C-100.182 141.637 -51.4934 127.303 -3.72419 105.761C44.7612 83.8968 90.312 57.6844 134.054 29.1668C262.458 -54.771 396.861 -130.69 531.104 -207.007C590.501 -240.852 651.874 -271.082 717.621 -292.463C782.844 -313.708 847.873 -326.303 912.799 -324.449C962.736 -323.06 1008.32 -313.428 1051.64 -299.417C1114.17 -279.063 1170.22 -250.996 1225.97 -222.651C1304.89 -182.39 1383.22 -141.572 1463 -102.147C1531.91 -68.2523 1604.14 -37.9332 1679.53 -11.752C1704.99 -2.97556 1730.91 5.17304 1756.63 13.5072C1750.15 19.755 1743.66 26.0027 1737.17 32.2505C1735.59 31.7473 1733.94 31.5009 1732.36 30.9977C1613.98 -6.57288 1504.49 -55.0883 1397.72 -106.786C1323.94 -142.425 1251.03 -178.898 1177.17 -214.28C1130.86 -236.451 1082.2 -255.81 1029.85 -270.147C962.269 -288.576 890.447 -294.458 812.03 -281.661C737.106 -269.47 665.424 -244.58 596.739 -210.619C492.337 -158.997 391.838 -101.384 293.126 -41.629C234.269 -6.09588 178.007 32.8241 120.448 70.0507C77.8828 97.6187 34.5515 124.269 -12.4389 145.981C-87.414 180.666 -159.607 189.675 -229.462 171.229C-269.084 160.824 -304.496 145.261 -338.601 128.071C-382.332 105.803 -425.218 82.5366 -469.527 60.8258C-617.584 -11.8113 -780.206 -63.7972 -957.103 -95.4101C-976.919 -98.9524 -997.174 -101.703 -1017.28 -104.967V-104.967Z" fill="#BBBBBB"/>
<path d="M1718.77 49.9724C1712.29 56.2201 1705.8 62.4679 1699.31 68.7156C1697.62 68.1414 1695.92 67.5673 1694.23 66.9931C1608.8 36.6897 1526.92 2.04119 1446.66 -34.3485C1365.72 -71.0007 1285.46 -108.302 1204.25 -144.512C1151.02 -168.302 1095.68 -189.139 1036.54 -205.025C906.484 -239.996 770.716 -227.336 628.657 -166.487C579.929 -145.677 532.645 -122.026 486.01 -97.5292C409.975 -57.5917 334.609 -16.6437 265.2 31.9958C208.285 71.7292 152.329 112.195 95.649 152.07C55.8476 180.104 15.2591 207.055 -29.671 228.807C-77.9682 252.145 -127.025 264.442 -176.92 259.149C-198.629 256.878 -218.867 251.719 -237.915 244.863C-280.3 229.76 -317.105 208.364 -352.54 185.833C-403.611 153.525 -453.119 119.896 -507.582 90.6723C-636.292 21.2933 -779.672 -28.2534 -936.704 -59.3165C-938.709 -59.7761 -940.866 -59.7225 -942.947 -59.9255C-956.313 -68.0246 -969.678 -76.1237 -983.043 -84.2228C-980.962 -84.0198 -978.688 -84.0024 -976.703 -83.7066C-952.097 -79.0753 -927.416 -74.7006 -903.078 -69.6272C-780.921 -43.9756 -666.458 -7.41705 -559.98 40.3269C-496.429 68.7088 -436.477 101.108 -378.644 135.549C-339.176 159.163 -298.648 181.757 -252.83 198.335C-221.421 209.659 -188.101 217.303 -150.424 216.704C-102.488 215.973 -56.5208 201.501 -11.6117 179.586C34.4199 157.142 76.4407 129.546 118.089 101.574C172.775 64.7228 226.93 27.096 282.223 -9.23605C353.612 -55.9197 429.862 -95.8789 505.537 -136.941C553.094 -162.694 601.618 -186.803 652.234 -207.224C786.406 -261.212 914.066 -272.135 1035.44 -238.189C1088.96 -223.141 1139.33 -203.956 1187.38 -181.795C1273.83 -141.804 1359.43 -100.814 1445.81 -60.5661C1517.56 -27.211 1590.99 3.9823 1667.54 31.6221C1684.56 37.8554 1701.66 43.832 1718.77 49.9724V49.9724Z" fill="#BBBBBB"/>
<path d="M1681.87 85.4999C1675.06 92.0569 1668.26 98.614 1661.45 105.171C1660.04 104.318 1658.52 103.395 1656.92 102.728C1563.32 62.6351 1469.81 22.4493 1376.13 -17.3869C1307.03 -46.8636 1238.32 -76.7114 1168.28 -105.096C1116.28 -126.024 1061.25 -142.744 1002.67 -154.206C888.177 -176.572 770.137 -165.716 647.842 -117.833C599.311 -98.8686 552.48 -76.7579 505.871 -53.757C433.412 -18.0008 363.252 20.5086 298.367 66.4472C240.723 107.251 185.901 150.671 131.431 194.304C90.1965 227.214 49.2381 260.593 4.59528 290.53C-19.5124 306.759 -44.1937 321.885 -71.0561 334.328C-121.958 357.6 -169.56 360.953 -214.013 344.899C-229.435 339.333 -244.17 332.369 -257.9 324.805C-305.282 298.511 -344.991 265.378 -385.374 232.895C-427.186 199.396 -469.21 165.918 -516.018 136.495C-603.399 81.5794 -700.879 38.2301 -807.763 5.9618C-823.529 1.09437 -839.927 -2.7959 -856.078 -7.29218C-872.335 -17.1437 -888.592 -26.9952 -904.85 -36.8468C-902.865 -36.5509 -900.57 -36.3697 -898.564 -35.9101C-863.871 -26.829 -828.738 -18.5396 -794.678 -8.48135C-652.569 33.6437 -527.241 94.3221 -417.515 172.604C-377.047 201.511 -335.616 229.489 -293.703 257.004C-270.343 272.217 -243.804 284.369 -214.534 293.338C-163.184 309.187 -109.065 304.342 -52.2624 278.145C-19.3608 263.013 11.5313 244.848 40.1459 224.094C90.2926 188.12 139.832 151.627 188.978 114.593C275.321 49.4589 365.729 -10.9443 465.109 -61.2245C525.661 -91.9513 585.937 -123.148 649.612 -148.052C745.241 -185.337 840.334 -202.238 935.05 -194.123C994.564 -188.896 1049.29 -175.383 1101.61 -157.889C1180.81 -131.515 1253.93 -97.6353 1327.97 -65.0109C1423.2 -23.1752 1518.75 18.5459 1614.56 59.8248C1636.31 69.2275 1659.37 77.0034 1681.87 85.4999V85.4999Z" fill="#BBBBBB"/>
<path d="M1023.54 -512.961C1022.33 -513.087 1020.93 -513.028 1019.8 -513.41C940.486 -535.623 857.27 -524.828 771.156 -488.428C718.922 -466.266 669.749 -438.772 622.832 -408.852C557.596 -367.359 492.871 -325.254 428.891 -282.395C355.617 -233.527 279.036 -189.385 200.571 -147.292C148.642 -119.352 97.169 -90.3791 42.7953 -66.3388C-2.86728 -46.0897 -49.2997 -29.3303 -97.8242 -20.4901C-157.66 -9.58549 -213.691 -12.0962 -267.19 -22.7478C-329.898 -35.2003 -389.561 -52.6097 -449.202 -69.8553C-573.2 -105.692 -697.885 -140.131 -827.631 -166.753C-904.496 -182.494 -982.414 -196.302 -1061.63 -207.572C-1063.95 -207.917 -1066.19 -208.519 -1068.4 -208.956C-1063.2 -213.967 -1058.03 -218.947 -1052.89 -223.895C-1051.01 -223.507 -1049.12 -223.118 -1047.25 -222.893C-989.521 -213.004 -931.331 -203.743 -874.041 -193.062C-737.759 -167.77 -606.26 -134.191 -475.373 -99.4703C-408.751 -81.7737 -341.936 -64.2627 -272.021 -52.129C-231.205 -45.082 -189.333 -41.6277 -144.88 -45.0746C-83.4165 -50.0043 -24.0314 -67.8334 34.3794 -92.4506C84.2717 -113.462 132.008 -138.652 179.766 -163.679C253.695 -202.323 326.506 -242.098 394.457 -288.598C463.701 -335.976 532.712 -383.496 602.33 -430.497C652.438 -464.227 703.547 -496.897 758.37 -525.049C808.318 -550.713 859.998 -569.583 914.983 -575.264C916.264 -575.395 917.6 -575.946 918.957 -576.333C953.817 -555.209 988.676 -534.085 1023.54 -512.961V-512.961Z" fill="#BBBBBB"/>
<path d="M-170.22 408.328C-165.7 408.144 -161.219 407.937 -156.777 407.706C-136.052 406.509 -116.009 400.817 -96.2997 392.504C-60.1735 377.209 -27.9826 356.506 1.50355 333.257C46.9307 297.597 91.2817 261.135 135.377 224.366C190.891 177.888 246.638 131.552 306.146 88.4013C374.747 38.5163 450.037 -2.175 527.827 -39.3867C573.591 -61.3887 619.831 -82.1945 667.834 -99.3627C779.859 -139.562 887.856 -147.735 992.612 -129.606C1057.66 -118.305 1118.59 -100.278 1175.91 -77.485C1249.44 -48.0445 1321.86 -17.1628 1394.15 13.6477C1476.05 48.4601 1557.29 84.0857 1638.82 119.433C1640.54 120.171 1642.28 121.073 1644.01 121.975C1637.53 128.222 1631.07 134.439 1624.65 140.625C1622.96 140.051 1621.26 139.477 1619.54 138.739C1563.22 113.881 1506.89 88.9678 1450.56 64.0004C1362.52 25.1661 1274.83 -14.367 1182.47 -48.1139C1122.32 -70.2034 1060.18 -89.2687 992.949 -100.68C891.682 -117.754 786.968 -111.823 678.185 -74.1946C581.53 -40.705 489.769 3.15678 402.428 54.5347C331.501 96.3585 268.73 146.148 209.069 198.276C151.432 248.455 95.2225 299.651 38.0542 350.115C-3.96019 387.087 -46.9544 423.162 -97.8827 452.163C-121.956 437.575 -146.068 422.963 -170.22 408.328V408.328Z" fill="#BBBBBB"/>
<path d="M814.496 -639.633C830.441 -629.971 846.386 -620.309 862.33 -610.647C845.134 -603.835 827.62 -597.82 810.742 -590.21C767.676 -570.806 727.449 -546.961 689.574 -520.783C615.29 -469.656 541.497 -418.08 468.427 -365.915C380.083 -302.901 290.102 -242.541 190.266 -193.293C139.594 -168.219 89.7927 -141.408 37.1866 -119.622C-22.1957 -94.9889 -82.4351 -77.0728 -144.69 -71.5646C-192.519 -67.4421 -237.368 -71.3402 -281.387 -78.061C-353.643 -89.0435 -422.511 -105.682 -491.323 -122.741C-640.887 -159.709 -791.447 -195.165 -946.964 -221.984C-977.6 -227.246 -1008.5 -232.066 -1039.31 -236.978C-1033.79 -242.298 -1028.26 -247.618 -1022.74 -252.938C-1020.38 -252.265 -1018.12 -251.5 -1015.69 -251.084C-955.678 -240.265 -894.959 -230.68 -835.828 -218.279C-714.897 -192.917 -594.75 -166.065 -474.355 -139.819C-407.468 -125.137 -339.991 -111.759 -270.046 -102.782C-166.014 -89.4749 -61.4865 -105.344 44.1155 -150.947C81.6322 -167.214 118.864 -184.862 155.628 -202.795C219.81 -233.891 282.771 -266.938 341.361 -306.261C420.464 -359.455 495.415 -416.376 571.207 -472.636C649.642 -531.074 725.842 -591.773 814.496 -639.633V-639.633Z" fill="#BBBBBB"/>
<path d="M1606.15 158.435C1599.66 164.682 1593.21 170.899 1586.78 177.085C1542.6 156.357 1498.61 135.444 1454.14 114.995C1365.54 74.3087 1276.1 34.6218 1181.32 1.37071C1121.64 -19.5227 1060.28 -37.5062 994.036 -48.0218C922.166 -59.3754 847.876 -60.8571 769.325 -45.7237C715.704 -35.2858 663.421 -18.5948 612.365 2.61836C537.763 33.4479 464.681 66.8611 398.284 111.128C336.583 152.344 281.007 198.331 228.466 246.913C159.197 311.056 95.6511 378.516 31.9674 445.741C14.9114 463.824 -2.49645 481.695 -19.6906 499.544C-32.1181 492.013 -44.5065 484.506 -56.8558 477.022C-20.4034 443.936 16.7315 411.112 52.3632 377.529C114.047 319.22 173.504 259.562 238.588 203.313C290.039 158.908 343.567 116.367 403.324 79.4141C476.995 33.6599 556.096 -2.60646 637.373 -34.5305C718.223 -66.411 799.974 -84.4427 882.606 -84.5571C951.187 -84.5689 1014.73 -74.0273 1075.74 -57.9169C1163.29 -34.7989 1244.17 -2.87034 1323.06 31.3345C1405.86 67.2994 1487.41 104.471 1569.53 141.085C1581.92 146.628 1593.95 152.706 1606.15 158.435V158.435Z" fill="#BBBBBB"/>
<path d="M38.9254 535.06C29.1554 529.139 19.3854 523.219 9.61538 517.299C37.8137 484.804 65.6394 451.932 94.4031 419.628C158.335 347.565 225.177 277.114 301.26 212.112C352.849 167.942 407.494 126.531 469.613 92.8231C529.604 60.2448 592.207 32.8773 656.635 9.63892C736.794 -19.1839 816.978 -34.2347 897.331 -32.7065C960.444 -31.4976 1019.36 -21.6462 1076.25 -7.27425C1173.08 17.388 1262.05 52.5586 1348.51 90.8898C1405.62 116.276 1461.5 143.033 1517.76 169.418C1534.92 177.546 1551.51 186.395 1568.28 194.894C1561.54 201.389 1554.76 207.916 1547.96 214.473C1541.45 210.986 1535.07 207.57 1528.57 204.083C1427.66 151.705 1323.95 102.766 1213.26 61.8411C1146.28 37.1272 1076.87 16.2292 1001.94 3.77648C928.47 -8.24413 852.175 -10.1855 771.584 5.0726C711.79 16.3049 654.193 36.2755 597.206 59.3371C510.593 94.3767 430.842 138.261 360.088 195.003C299.348 243.756 244.821 296.274 193.95 351.158C138.497 410.824 87.6288 472.513 38.9254 535.06V535.06Z" fill="#BBBBBB"/>
<path d="M746.028 -681.123C757.127 -674.398 768.226 -667.672 779.324 -660.947C777.762 -659.626 776.2 -658.305 774.52 -657.055C735.347 -628.339 695.449 -600.213 657.021 -570.743C575.126 -508.053 494.19 -444.631 412.647 -381.728C298.334 -293.333 168.686 -226.778 31.8079 -171.103C-39.2547 -142.211 -111.877 -124.694 -185.363 -123.27C-237.047 -122.24 -286.859 -126.878 -335.681 -133.939C-416.551 -145.455 -494.577 -162.655 -572.56 -179.527C-716.748 -210.819 -861.719 -240.62 -1009.16 -266.021C-1003.7 -271.279 -998.208 -276.568 -992.685 -281.888C-990.327 -281.215 -988.066 -280.45 -985.516 -279.962C-930.425 -269.556 -874.948 -259.52 -820.126 -248.672C-699.073 -224.899 -578.557 -200.242 -457.429 -176.726C-391.978 -163.972 -324.906 -154.62 -255.299 -150.836C-164.131 -145.928 -72.7318 -158.718 19.2623 -193.973C48.9512 -205.46 78.0666 -218.05 107.417 -230.498C218.04 -277.442 318.28 -337.933 410.554 -409.148C483.838 -465.567 554.714 -523.899 625.004 -582.586C664.778 -615.927 705.648 -648.301 746.028 -681.123V-681.123Z" fill="#BBBBBB"/>
<path d="M88.7565 565.269C80.2371 560.107 71.7568 554.968 63.3155 549.853C76.0664 532.788 88.6792 515.489 101.761 498.474C161.908 420.489 226.544 344.62 302.109 273.862C344.334 234.296 389.221 196.949 439.53 163.946C524.095 108.618 617.036 70.6111 714.36 42.3642C780.282 23.2057 845.787 16.0389 910.21 18.1932C958.984 19.7832 1005.51 26.6636 1050.47 36.5248C1140.18 56.2691 1222.25 86.4999 1301.75 120.312C1381.01 153.982 1456.48 191.854 1529.46 232.304C1522.4 239.108 1515.3 245.943 1508.17 252.81C1418.42 199.629 1322.97 152.671 1220.32 113.748C1156.1 89.4998 1089.55 68.9745 1017.92 56.1029C952.383 44.3535 884.732 39.7896 812.773 48.9411C705.679 62.4994 604.965 100.634 508.169 150.817C440.581 185.746 383.703 231.699 330.659 280.581C273.625 332.939 223.403 388.67 177.787 446.588C146.965 485.656 118.33 525.747 88.7565 565.269V565.269Z" fill="#BBBBBB"/>
<path d="M691.395 -714.23C700.461 -708.736 709.567 -703.218 718.711 -697.677C715.993 -695.243 713.392 -692.737 710.556 -690.374C685.526 -668.657 660.165 -646.99 635.37 -625.131C563.487 -561.967 492.074 -498.519 415.28 -439.087C361.317 -397.413 306.471 -356.729 245.994 -322.027C179.464 -283.887 108.803 -253.541 37.1545 -225.004C-56.3182 -187.772 -150.151 -171.166 -244.52 -173.176C-304.835 -174.504 -363.591 -179.724 -420.252 -189.722C-522.168 -207.643 -623.28 -226.89 -724.488 -246.044C-809.499 -262.035 -894.262 -278.631 -979.101 -294.971C-973.578 -300.291 -968.087 -305.58 -962.628 -310.838C-938.642 -305.978 -914.848 -300.932 -890.691 -296.421C-760.769 -271.809 -631.019 -246.847 -500.678 -223.19C-430.914 -210.543 -359.315 -201.32 -285.093 -198.669C-209.045 -196.122 -132.1 -201.798 -53.3837 -222.425C4.20007 -237.415 59.1891 -260.025 114.233 -283.054C190.824 -315.248 262.085 -354.451 327.829 -402.136C409.041 -460.856 484.265 -524.112 556.123 -590.011C601.174 -631.441 646.265 -672.848 691.395 -714.23V-714.23Z" fill="#BBBBBB"/>
<path d="M132.726 591.918C125.223 587.372 117.719 582.825 110.216 578.278C110.559 577.579 110.903 576.88 111.46 576.16C161.857 503.151 215.55 431.383 278.681 363.218C317.175 321.543 358.738 281.879 404.542 244.937C470.953 191.458 546.21 151.35 628.446 120.159C733.264 80.2782 837.332 60.8045 941.067 69.246C1010.26 74.8973 1074.81 89.0708 1136.34 108.365C1266.01 148.852 1382.19 204.737 1488.72 271.56C1481.27 278.736 1473.85 285.881 1466.46 292.995C1404.15 250.546 1336.17 213.736 1263.22 182.079C1189.24 149.946 1111.23 123.534 1026.33 106.703C906.696 83.0348 782.986 90.1525 653.263 137.464C594.861 158.761 537.862 182.571 485.885 216.076C414.551 262.339 354.874 316.876 300.79 375.406C239.606 441.879 187.53 511.905 139.315 583.364C137.3 586.225 134.858 589.129 132.726 591.918V591.918Z" fill="#BBBBBB"/>
<path d="M643.443 -743.287C651.65 -738.314 659.818 -733.365 667.947 -728.439C666.426 -726.791 665.023 -725.071 663.481 -723.586C638.413 -699.625 613.441 -675.757 588.49 -651.725C525.059 -590.998 460.69 -530.839 390.279 -474.795C342.037 -436.609 292.401 -400.023 238.591 -367.327C189.476 -337.682 136.443 -315.852 83.6104 -293.297C-38.4715 -241.203 -161.226 -216.425 -285.612 -219.694C-361.48 -221.678 -434.532 -230.422 -506.403 -241.776C-647.498 -264.089 -785.824 -291.829 -924.149 -319.568C-932.248 -321.15 -940.175 -323.081 -948.081 -324.849C-942.558 -330.169 -937.034 -335.489 -931.511 -340.809C-929.036 -340.065 -926.637 -339.064 -923.969 -338.506C-841.191 -322.205 -758.68 -305.462 -675.345 -289.882C-585.351 -272.988 -494.381 -257.771 -400.34 -249.006C-329.289 -242.382 -256.997 -240.448 -181.881 -248.593C-91.932 -258.331 -4.55484 -283.989 81.8317 -318.259C158.942 -348.929 231.509 -385.526 297.392 -432.976C352.46 -472.771 405.376 -514.171 453.497 -559.233C513.586 -615.637 571.895 -673.27 630.928 -730.313C635.263 -734.488 639.246 -738.877 643.443 -743.287V-743.287Z" fill="#BBBBBB"/>
<path d="M1445.08 313.58C1436.99 321.374 1428.89 329.169 1420.8 336.963C1412.5 330.422 1404.61 323.675 1396.12 317.32C1335.76 272.431 1266.97 236.036 1191.88 206.256C1126.26 180.243 1057.05 160.072 981.49 149.508C827.848 128.058 677.105 163.237 529.9 243.944C469.351 277.243 419.429 320.911 373.259 366.853C313.547 426.206 263.453 489.724 218.019 555.008C203.379 575.916 189.731 596.972 175.635 617.907C168.21 613.408 160.746 608.885 153.242 604.338C154.957 601.95 156.633 599.539 158.269 597.105C180.529 565.546 201.989 533.654 225.145 502.337C276.141 433.167 333.342 366.851 402.334 306.47C462.648 253.529 529.92 209.339 608.366 178.118C685.283 147.634 762.969 124.871 843.001 118.798C913.808 113.332 979.98 119.872 1043.32 133.919C1184.81 165.237 1306.61 220.3 1414.8 291.603C1425.31 298.581 1435.06 306.302 1445.08 313.58V313.58Z" fill="#BBBBBB"/>
<path d="M1211.18 538.876C1198.91 550.691 1186.62 562.537 1174.28 574.413C1167.6 560.988 1161.12 547.54 1154.22 534.136C1125.54 478.057 1080.11 434.055 1014.9 404.515C854.033 331.522 638.97 393.331 520.587 498.155C476.742 536.89 437.951 577.931 403.595 621.509C379.576 652.001 357.04 683.09 333.917 713.823C326.805 709.513 319.653 705.18 312.462 700.822C327.626 679.778 342.673 658.663 358.167 637.668C397.802 584.591 440.423 532.87 492.021 485.38C599.016 387.109 726.717 337.513 868.718 337.246C1019.7 336.978 1123.78 393.098 1187.13 491.951C1196.71 506.825 1203.23 523.172 1211.18 538.876V538.876Z" fill="#BBBBBB"/>
<path d="M1343.15 411.745C1332.17 422.322 1321.18 432.9 1310.2 443.478C1293.93 416.838 1273.73 392.507 1248.75 371.318C1189.22 321.035 1114.52 287.564 1029.42 265.774C895.215 231.309 755.875 246.49 611.466 311.81C552.548 338.388 503.125 374.952 458.175 416.04C409.927 460.118 368.631 507.804 331.899 557.349C305.207 593.176 280.446 629.719 254.768 665.857C247.968 661.737 241.129 657.592 234.251 653.424C244.338 638.374 254.212 623.345 264.512 608.272C309.883 542.497 358.666 478.033 418.881 418.38C459.1 378.355 502.291 340.434 554.811 311.189C679.459 241.906 808.983 209.136 941.244 221.561C1072.86 234.051 1181.73 277.651 1273.39 343.168C1301.01 362.927 1323.76 386.086 1343.15 411.745V411.745Z" fill="#BBBBBB"/>
<path d="M1280.05 472.522C1268.1 484.028 1256.16 495.534 1244.21 507.04C1208.98 429.306 1145.12 373.074 1053.37 338.186C962.191 303.489 861.605 295.142 749.168 321.94C661.089 342.939 580.602 378.517 511.833 435.556C469.299 471.004 432.234 509.463 398.431 549.748C360.205 595.213 326.618 642.28 293.927 689.588C287.049 685.42 280.21 681.275 273.41 677.155C317.809 611.395 364.139 546.351 421.134 485.201C458.802 444.689 499.519 406.023 549.141 374.418C649.081 310.721 757.197 278.886 870.927 274.941C945.334 272.262 1011.92 286.311 1074.06 308.696C1168.19 342.761 1238.78 395.818 1280.05 472.522V472.522Z" fill="#BBBBBB"/>
<path d="M215.734 642.202C208.543 637.844 201.392 633.51 194.279 629.2C211.14 604.498 227.649 579.583 245.054 554.908C291.61 489.095 342.847 425.211 405.205 366.253C451.338 322.556 501.423 281.858 561.824 251.644C702.746 181.037 844.781 152.221 987.35 174.218C1060.5 185.441 1127.56 205.666 1190.74 232.011C1260.88 261.215 1324.69 296.707 1378.81 341.898C1385.29 347.435 1391.84 352.964 1398.45 358.486C1389.08 367.518 1379.7 376.549 1370.32 385.581C1362.87 378.041 1355.8 370.131 1347.95 362.799C1303.54 321.68 1249.53 289.256 1189.75 262.4C1121.71 231.902 1048.59 209.059 967.127 198.847C829.147 181.445 693.032 211.733 559.393 281.765C502.622 311.609 455.637 351.161 412.231 393.336C355.07 448.944 307.548 508.881 264.239 570.464C247.466 594.162 231.824 618.242 215.734 642.202Z" fill="#BBBBBB"/>
<path d="M601.471 -768.721C608.662 -764.364 615.814 -760.03 622.926 -755.72C600.626 -732.954 578.444 -710.116 556.026 -687.421C498.002 -628.406 438.432 -570.478 372.746 -516.409C335.745 -485.922 297.137 -457.015 256.707 -429.664C195.957 -388.628 128.96 -359.236 59.9749 -332.712C-62.6378 -285.627 -185.518 -261.831 -309.192 -263.762C-368.804 -264.663 -426.974 -269.529 -484.155 -276.818C-601.143 -291.628 -714.729 -312.841 -827.553 -335.709C-857.536 -341.784 -887.154 -348.395 -916.964 -354.819C-911.505 -360.077 -906.014 -365.366 -900.491 -370.686C-820.572 -354.758 -741.073 -337.875 -660.543 -323.088C-570.163 -306.565 -478.129 -294.028 -382.949 -288.2C-248.957 -280.018 -113.884 -296.425 23.0171 -345.131C76.9291 -364.312 130.661 -384.054 181.179 -411.187C255.271 -451.093 319.718 -500.472 381.045 -553.102C433.48 -598.271 481.887 -646.183 529.143 -694.641C553.252 -719.335 577.362 -744.028 601.471 -768.721V-768.721Z" fill="#BBBBBB"/>
<path d="M374.937 738.688C367.512 734.189 360.048 729.666 352.544 725.119C365.241 708.475 378.033 691.738 390.943 675.072C427.294 628.471 465.947 582.962 511.979 541.018C556.063 500.765 605.551 467.264 664.577 444.078C815.92 384.774 961.984 397.702 1055.18 479.575C1084.29 505.074 1104.86 535.675 1122.38 567.912C1129.16 580.333 1135.72 592.776 1142.29 605.219C1130.28 616.786 1118.3 628.323 1106.35 639.829C1096.07 621.956 1086.4 603.855 1075.61 586.283C1057.06 556.141 1035.72 527.943 1005.86 505.01C939.069 453.806 854.181 436.227 749.137 457.376C660.542 475.192 584.54 514.545 520.377 573.77C479.845 611.338 444.153 651.234 410.999 692.365C398.679 707.726 386.926 723.278 374.937 738.688V738.688Z" fill="#BBBBBB"/>
<path d="M-884.981 -385.625C-879.136 -391.254 -873.292 -396.884 -867.447 -402.513C-865.303 -401.818 -863.256 -401.031 -861.036 -400.593C-814.752 -390.535 -768.929 -379.848 -722.225 -370.745C-624.849 -351.948 -525.529 -337.414 -422.526 -330.475C-276.101 -320.653 -128.277 -338.856 21.8755 -392.231C94.8304 -418.163 165.713 -447.618 229.672 -490.641C278.583 -523.585 323.872 -559.479 366.712 -597.614C423.335 -648.105 475.056 -701.416 526.191 -755.083C538.128 -767.5 550.279 -779.94 562.43 -792.379C569.23 -788.259 576.069 -784.114 582.947 -779.946C581.385 -778.626 579.823 -777.305 578.378 -775.913C553.347 -749.964 528.647 -723.966 503.381 -698.159C446.554 -639.93 387.831 -583.002 322.287 -530.358C244.664 -468.103 159.597 -416.707 61.8698 -381.449C-30.8777 -347.859 -124.118 -321.522 -219.779 -311.617C-302.412 -303.038 -381.994 -305.309 -460.185 -312.783C-575.583 -323.605 -686.9 -343.141 -796.574 -365.914C-826.343 -372.012 -855.576 -378.993 -884.981 -385.625V-385.625Z" fill="#BBBBBB"/>
<path d="M1075.33 669.704C1063.64 680.962 1051.99 692.19 1040.36 703.386C1038.37 700.518 1036.29 697.743 1034.18 694.804C1014.08 665.236 993.851 635.596 967.692 609.465C940.532 582.274 908.631 559.466 865.693 547.656C785.973 525.65 703.949 541.552 621.334 582.491C578.498 603.697 543.764 633.29 511.043 664.253C477.283 696.402 447.213 730.332 417.963 764.759C410.147 760.023 402.331 755.287 394.515 750.55C403.32 739.862 412.007 729.103 420.908 718.322C454.787 677.781 490.265 637.906 531.894 601.306C574.583 563.685 622.388 533.094 679.29 513.609C786.49 477.137 879.853 479.747 957.173 528.717C989.284 548.932 1012.98 575.231 1032.86 603.909C1047.73 625.464 1061.18 647.827 1075.33 669.704V669.704Z" fill="#BBBBBB"/>
</g>
</g>
<g opacity="0.2">
<mask id="mask2_7_366" style="mask-type:alpha" maskUnits="userSpaceOnUse" x="1193" y="410" width="1064" height="828">
<ellipse cx="471.576" cy="481.126" rx="471.576" ry="481.126" transform="matrix(0.85523 0.518249 -0.720245 0.693719 1668.05 246)" fill="#9090BF"/>
</mask>
<g mask="url(#mask2_7_366)">
<path d="M569.538 575.568C574.74 570.557 579.91 565.578 585.048 560.629C698.267 575.573 808.504 595.966 916.239 621.343C1033.34 648.92 1145.44 683.894 1257.92 718.497C1306.8 733.602 1356.32 747.894 1406.98 759.997C1464.1 773.599 1525.4 774.163 1590.43 758.996C1636.54 748.243 1680.29 730.761 1723.15 710.631C1777.12 685.138 1828.18 655.461 1880.01 626.701C1946.16 589.844 2012.57 553.294 2075.73 512.509C2133.79 474.983 2191.64 437.478 2250.47 400.869C2304.58 367.146 2360.85 335.942 2420.88 311.244C2525.3 268.251 2623.08 261.449 2713.5 295.227C2754.51 310.553 2791.43 330.36 2825.69 352.929C2887.54 393.433 2947.92 435.165 3009.78 475.669C3108.48 540.469 3213.63 598.14 3331.37 642.58C3346.81 648.31 3362.71 653.412 3378.33 658.793C3405.37 675.181 3432.41 691.568 3459.46 707.956C3446.25 704.487 3432.87 701.369 3419.93 697.458C3297.48 661.049 3186.67 610.676 3083.7 551.455C3017.99 513.751 2954.8 473.798 2890.72 434.516C2843.65 405.535 2796.76 376.369 2743.64 353.399C2702.65 335.665 2658.79 322.538 2608.85 319.49C2543.33 315.457 2477.74 328.772 2412.32 353.523C2352.45 376.048 2296.14 405.264 2242.09 437.818C2183.14 473.444 2125.74 511.069 2066.39 546.154C1980.82 596.938 1894.2 646.334 1807.83 696.036C1760.56 723.17 1712.18 748.425 1661.02 768.82C1587.32 798.23 1514.69 808.943 1444.08 797.295C1419.02 793.291 1394.04 788.283 1371.14 780.906C1302.88 758.894 1235.55 735.627 1167.83 712.732C1034.56 667.798 896.882 629.869 751.654 603.994C691.643 593.176 630.236 584.989 569.538 575.568L569.538 575.568Z" fill="#D3D3D3"/>
<path d="M584.365 610.395C574.752 604.569 565.331 598.558 555.332 593.103C552.187 591.349 554.432 590.29 555.952 588.642C557.958 589.102 559.888 589.818 561.873 590.114C727.019 609.314 884.418 642.414 1034.59 688.366C1130.62 717.838 1222.39 752.89 1314.16 787.942C1353.49 802.857 1393.38 817.052 1437.49 825.34C1505.43 838.09 1575.27 830.98 1647.66 803.196C1682.81 789.577 1716.72 773.844 1749.32 755.505C1799.05 727.291 1848.35 698.208 1897.78 669.36C1969.85 627.171 2041.92 584.982 2113.97 542.629C2162.76 513.846 2210.89 484.053 2260.31 455.953C2311.95 426.63 2366.03 401.957 2423.06 383.455C2524.11 350.513 2618.16 347.494 2704.15 377.076C2734.13 387.384 2763.62 398.903 2790.5 412.928C2842.56 440.24 2893.31 469.178 2943.46 498.51C3035.08 551.915 3127.69 604.556 3228.19 648.677C3302.8 681.493 3380.27 710.449 3463.46 731.687C3456.65 738.244 3449.84 744.801 3443.03 751.358C3440.46 750.707 3437.89 750.056 3435.2 749.334C3319.26 716.411 3212.71 671.496 3111.6 620.052C3040.2 583.59 2970.59 545.037 2900.33 507.298C2850.15 480.211 2799.94 452.96 2744.51 431.468C2702.08 415.126 2657.33 402.671 2607.46 398.454C2538.69 392.759 2469.07 404.992 2398.77 427.998C2335.72 448.441 2276.76 477.263 2220 509.679C2153.37 547.911 2087.14 586.685 2021.28 625.835C1945.35 670.824 1869.93 716.424 1794.23 761.555C1747.08 789.672 1699.25 816.615 1647.58 837.31C1580.27 864.244 1514.6 872.672 1450.53 861.354C1411.46 854.461 1375.89 842.731 1341.75 828.698C1273.62 800.865 1206.58 771.427 1137.41 744.779C968.357 679.674 786.776 635.095 592.745 610.786C590.002 610.485 587.087 610.532 584.365 610.395V610.395Z" fill="#D3D3D3"/>
<path d="M650.722 650.607C638.998 643.503 627.274 636.398 615.55 629.294C618.175 629.524 620.759 629.427 623.289 629.751C710.051 641.663 794.152 658.161 876.097 678.944C1025.65 716.66 1162.29 771.042 1292.44 833.886C1329.91 852.06 1367.66 869.792 1409.63 882.53C1443.17 892.724 1478.52 899.332 1517.46 898.438C1567.82 897.211 1616.51 882.878 1664.28 861.335C1712.76 839.471 1758.31 813.259 1802.05 784.741C1930.46 700.803 2064.86 624.885 2199.1 548.567C2258.5 514.722 2319.87 484.492 2385.62 463.111C2450.84 441.866 2515.87 429.271 2580.8 431.126C2630.74 432.514 2676.32 442.146 2719.64 456.157C2782.17 476.511 2838.22 504.578 2893.97 532.924C2972.89 573.184 3051.22 614.002 3131 653.428C3199.91 687.322 3272.14 717.641 3347.53 743.822C3372.99 752.599 3398.91 760.747 3424.63 769.081C3418.15 775.329 3411.66 781.577 3405.17 787.825C3403.59 787.322 3401.94 787.075 3400.36 786.572C3281.98 749.001 3172.49 700.486 3065.72 648.788C2991.94 613.15 2919.03 576.676 2845.17 541.294C2798.86 519.124 2750.2 499.764 2697.85 485.427C2630.27 466.999 2558.45 461.117 2480.03 473.913C2405.11 486.105 2333.42 510.994 2264.74 544.956C2160.34 596.577 2059.84 654.19 1961.13 713.945C1902.27 749.478 1846.01 788.398 1788.45 825.625C1745.88 853.193 1702.55 879.843 1655.56 901.555C1580.59 936.24 1508.39 945.249 1438.54 926.803C1398.92 916.398 1363.5 900.835 1329.4 883.645C1285.67 861.377 1242.78 838.111 1198.47 816.4C1050.42 743.763 887.794 691.777 710.897 660.164C691.081 656.622 670.826 653.871 650.722 650.607V650.607Z" fill="#D3D3D3"/>
<path d="M3386.77 805.547C3380.29 811.794 3373.8 818.042 3367.31 824.29C3365.62 823.716 3363.92 823.142 3362.23 822.567C3276.8 792.264 3194.92 757.615 3114.66 721.226C3033.72 684.574 2953.46 647.272 2872.25 611.062C2819.02 587.272 2763.68 566.435 2704.54 550.549C2574.48 515.578 2438.72 528.239 2296.66 589.087C2247.93 609.897 2200.65 633.548 2154.01 658.045C2077.97 697.982 2002.61 738.93 1933.2 787.57C1876.29 827.303 1820.33 867.769 1763.65 907.644C1723.85 935.678 1683.26 962.63 1638.33 984.381C1590.03 1007.72 1540.97 1020.02 1491.08 1014.72C1469.37 1012.45 1449.13 1007.29 1430.08 1000.44C1387.7 985.334 1350.9 963.938 1315.46 941.407C1264.39 909.099 1214.88 875.471 1160.42 846.247C1031.71 776.868 888.328 727.321 731.296 696.258C729.291 695.798 727.134 695.852 725.053 695.649C711.687 687.55 698.322 679.451 684.957 671.351C687.038 671.554 689.312 671.572 691.297 671.868C715.903 676.499 740.584 680.874 764.922 685.947C887.079 711.599 1001.54 748.157 1108.02 795.901C1171.57 824.283 1231.52 856.682 1289.36 891.123C1328.82 914.738 1369.35 937.331 1415.17 953.91C1446.58 965.233 1479.9 972.878 1517.58 972.278C1565.51 971.547 1611.48 957.075 1656.39 935.16C1702.42 912.716 1744.44 885.121 1786.09 857.148C1840.78 820.297 1894.93 782.67 1950.22 746.338C2021.61 699.655 2097.86 659.695 2173.54 618.633C2221.09 592.88 2269.62 568.772 2320.23 548.35C2454.41 494.362 2582.07 483.44 2703.44 517.386C2756.96 532.433 2807.33 551.619 2855.38 573.779C2941.83 613.77 3027.43 654.76 3113.81 695.008C3185.56 728.363 3258.99 759.557 3335.54 787.196C3352.56 793.43 3369.66 799.406 3386.77 805.547V805.547Z" fill="#D3D3D3"/>
<path d="M3349.87 841.074C3343.06 847.631 3336.26 854.188 3329.45 860.745C3328.04 859.893 3326.52 858.969 3324.92 858.302C3231.32 818.209 3137.81 778.024 3044.13 738.187C2975.03 708.711 2906.32 678.863 2836.28 650.478C2784.28 629.55 2729.25 612.831 2670.67 601.368C2556.18 579.002 2438.14 589.858 2315.84 637.741C2267.31 656.706 2220.48 678.816 2173.87 701.817C2101.41 737.573 2031.25 776.083 1966.37 822.021C1908.72 862.825 1853.9 906.245 1799.43 949.879C1758.2 982.788 1717.24 1016.17 1672.6 1046.1C1648.49 1062.33 1623.81 1077.46 1596.94 1089.9C1546.04 1113.17 1498.44 1116.53 1453.99 1100.47C1438.56 1094.91 1423.83 1087.94 1410.1 1080.38C1362.72 1054.09 1323.01 1020.95 1282.63 988.469C1240.81 954.97 1198.79 921.492 1151.98 892.07C1064.6 837.154 967.121 793.804 860.237 761.536C844.471 756.669 828.073 752.778 811.922 748.282C795.665 738.431 779.408 728.579 763.15 718.727C765.135 719.023 767.43 719.205 769.436 719.664C804.129 728.745 839.262 737.035 873.322 747.093C1015.43 789.218 1140.76 849.896 1250.49 928.178C1290.95 957.085 1332.38 985.063 1374.3 1012.58C1397.66 1027.79 1424.2 1039.94 1453.47 1048.91C1504.82 1064.76 1558.93 1059.92 1615.74 1033.72C1648.64 1018.59 1679.53 1000.42 1708.15 979.668C1758.29 943.694 1807.83 907.201 1856.98 870.167C1943.32 805.033 2033.73 744.63 2133.11 694.35C2193.66 663.623 2253.94 632.426 2317.61 607.522C2413.24 570.237 2508.33 553.336 2603.05 561.451C2662.56 566.678 2717.29 580.191 2769.61 597.685C2848.81 624.059 2921.93 657.939 2995.97 690.563C3091.2 732.399 3186.75 774.12 3282.56 815.399C3304.31 824.802 3327.37 832.578 3349.87 841.074V841.074Z" fill="#D3D3D3"/>
<path d="M2691.54 242.613C2690.33 242.487 2688.93 242.547 2687.8 242.164C2608.49 219.951 2525.27 230.746 2439.16 267.146C2386.92 289.309 2337.75 316.803 2290.83 346.722C2225.6 388.215 2160.87 430.321 2096.89 473.18C2023.62 522.047 1947.04 566.189 1868.57 608.282C1816.64 636.222 1765.17 665.195 1710.8 689.235C1665.13 709.485 1618.7 726.244 1570.18 735.084C1510.34 745.989 1454.31 743.478 1400.81 732.826C1338.1 720.374 1278.44 702.965 1218.8 685.719C1094.8 649.882 970.115 615.443 840.369 588.822C763.504 573.081 685.586 559.272 606.37 548.003C604.055 547.657 601.815 547.056 599.595 546.618C604.797 541.607 609.967 536.628 615.105 531.679C616.994 532.067 618.882 532.456 620.75 532.681C678.479 542.57 736.669 551.831 793.959 562.512C930.241 587.804 1061.74 621.383 1192.63 656.104C1259.25 673.801 1326.06 691.312 1395.98 703.445C1436.8 710.492 1478.67 713.947 1523.12 710.5C1584.58 705.57 1643.97 687.741 1702.38 663.124C1752.27 642.112 1800.01 616.922 1847.77 591.895C1921.69 553.251 1994.51 513.476 2062.46 466.977C2131.7 419.598 2200.71 372.078 2270.33 325.077C2320.44 291.347 2371.55 258.677 2426.37 230.525C2476.32 204.861 2528 185.991 2582.98 180.31C2584.26 180.18 2585.6 179.629 2586.96 179.242C2621.82 200.366 2656.68 221.49 2691.54 242.613V242.613Z" fill="#D3D3D3"/>
<path d="M1497.78 1163.9C1502.3 1163.72 1506.78 1163.51 1511.22 1163.28C1531.95 1162.08 1551.99 1156.39 1571.7 1148.08C1607.83 1132.78 1640.02 1112.08 1669.5 1088.83C1714.93 1053.17 1759.28 1016.71 1803.38 979.94C1858.89 933.462 1914.64 887.126 1974.15 843.975C2042.75 794.091 2118.04 753.399 2195.83 716.188C2241.59 694.186 2287.83 673.38 2335.83 656.212C2447.86 616.012 2555.86 607.839 2660.61 625.968C2725.66 637.269 2786.59 655.297 2843.91 678.089C2917.44 707.53 2989.86 738.411 3062.15 769.222C3144.05 804.034 3225.29 839.66 3306.82 875.007C3308.54 875.745 3310.28 876.647 3312.01 877.549C3305.53 883.797 3299.07 890.013 3292.65 896.199C3290.96 895.625 3289.26 895.051 3287.54 894.313C3231.22 869.455 3174.89 844.542 3118.56 819.575C3030.52 780.74 2942.83 741.207 2850.47 707.46C2790.32 685.371 2728.18 666.306 2660.95 654.894C2559.68 637.82 2454.97 643.751 2346.18 681.38C2249.53 714.869 2157.77 758.731 2070.43 810.109C1999.5 851.933 1936.73 901.722 1877.07 953.85C1819.43 1004.03 1763.22 1055.23 1706.05 1105.69C1664.04 1142.66 1621.05 1178.74 1570.12 1207.74C1546.04 1193.15 1521.93 1178.54 1497.78 1163.9V1163.9Z" fill="#D3D3D3"/>
<path d="M2482.5 115.941C2498.44 125.603 2514.39 135.265 2530.33 144.927C2513.13 151.74 2495.62 157.755 2478.74 165.365C2435.68 184.768 2395.45 208.613 2357.57 234.791C2283.29 285.918 2209.5 337.494 2136.43 389.659C2048.08 452.674 1958.1 513.033 1858.27 562.281C1807.59 587.355 1757.79 614.166 1705.19 635.952C1645.8 660.585 1585.56 678.501 1523.31 684.01C1475.48 688.132 1430.63 684.234 1386.61 677.513C1314.36 666.531 1245.49 649.892 1176.68 632.834C1027.11 595.866 876.553 560.41 721.036 533.59C690.4 528.328 659.496 523.508 628.689 518.596C634.212 513.276 639.735 507.956 645.258 502.636C647.616 503.309 649.877 504.075 652.31 504.491C712.322 515.309 773.041 524.894 832.172 537.295C953.103 562.657 1073.25 589.509 1193.64 615.755C1260.53 630.437 1328.01 643.815 1397.95 652.792C1501.99 666.099 1606.51 650.23 1712.12 604.627C1749.63 588.36 1786.86 570.712 1823.63 552.78C1887.81 521.683 1950.77 488.637 2009.36 449.314C2088.46 396.119 2163.42 339.198 2239.21 282.938C2317.64 224.501 2393.84 163.801 2482.5 115.941V115.941Z" fill="#D3D3D3"/>
<path d="M3274.15 914.009C3267.67 920.257 3261.21 926.474 3254.79 932.659C3210.6 911.932 3166.61 891.018 3122.14 870.569C3033.55 829.883 2944.1 790.196 2849.32 756.945C2789.65 736.052 2728.29 718.068 2662.04 707.552C2590.17 696.199 2515.88 694.717 2437.33 709.851C2383.71 720.288 2331.42 736.979 2280.37 758.193C2205.77 789.022 2132.68 822.435 2066.29 866.702C2004.59 907.919 1949.01 953.905 1896.47 1002.49C1827.2 1066.63 1763.66 1134.09 1699.97 1201.31C1682.92 1219.4 1665.51 1237.27 1648.31 1255.12C1635.89 1247.59 1623.5 1240.08 1611.15 1232.6C1647.6 1199.51 1684.74 1166.69 1720.37 1133.1C1782.05 1074.79 1841.51 1015.14 1906.59 958.888C1958.04 914.483 2011.57 871.941 2071.33 834.988C2145 789.234 2224.1 752.968 2305.38 721.044C2386.23 689.163 2467.98 671.132 2550.61 671.017C2619.19 671.005 2682.74 681.547 2743.75 697.657C2831.29 720.775 2912.17 752.704 2991.07 786.909C3073.87 822.874 3155.41 860.045 3237.54 896.659C3249.93 902.202 3261.95 908.28 3274.15 914.009V914.009Z" fill="#D3D3D3"/>
<path d="M1706.93 1290.63C1697.16 1284.71 1687.39 1278.79 1677.62 1272.87C1705.81 1240.38 1733.64 1207.51 1762.4 1175.2C1826.33 1103.14 1893.18 1032.69 1969.26 967.686C2020.85 923.516 2075.49 882.105 2137.61 848.397C2197.6 815.819 2260.21 788.451 2324.64 765.213C2404.79 736.39 2484.98 721.34 2565.33 722.868C2628.44 724.077 2687.36 733.928 2744.25 748.3C2841.08 772.962 2930.05 808.133 3016.51 846.464C3073.62 871.85 3129.5 898.607 3185.76 924.992C3202.92 933.12 3219.51 941.969 3236.28 950.468C3229.54 956.964 3222.76 963.49 3215.96 970.047C3209.45 966.56 3203.07 963.144 3196.57 959.657C3095.66 907.279 2991.95 858.341 2881.26 817.415C2814.28 792.701 2744.87 771.803 2669.94 759.351C2596.47 747.33 2520.17 745.389 2439.58 760.647C2379.79 771.879 2322.19 791.85 2265.21 814.911C2178.59 849.951 2098.84 893.835 2028.09 950.577C1967.35 999.33 1912.82 1051.85 1861.95 1106.73C1806.5 1166.4 1755.63 1228.09 1706.93 1290.63V1290.63Z" fill="#D3D3D3"/>
<path d="M2414.03 74.4508C2425.13 81.1763 2436.23 87.9019 2447.32 94.6275C2445.76 95.9482 2444.2 97.269 2442.52 98.5187C2403.35 127.235 2363.45 155.361 2325.02 184.832C2243.13 247.521 2162.19 310.943 2080.65 373.846C1966.33 462.241 1836.69 528.796 1699.81 584.471C1628.75 613.363 1556.12 630.881 1482.64 632.304C1430.95 633.334 1381.14 628.697 1332.32 621.635C1251.45 610.119 1173.42 592.919 1095.44 576.047C951.252 544.756 806.281 514.954 658.842 489.553C664.301 484.295 669.792 479.006 675.315 473.686C677.673 474.359 679.934 475.125 682.484 475.612C737.575 486.018 793.052 496.054 847.874 506.903C968.927 530.675 1089.44 555.332 1210.57 578.848C1276.02 591.602 1343.09 600.955 1412.7 604.739C1503.87 609.647 1595.27 596.856 1687.26 561.601C1716.95 550.114 1746.07 537.524 1775.42 525.077C1886.04 478.133 1986.28 417.641 2078.55 346.427C2151.84 290.007 2222.71 231.676 2293 172.989C2332.78 139.647 2373.65 107.273 2414.03 74.4508V74.4508Z" fill="#D3D3D3"/>
<path d="M1756.75 1320.84C1748.23 1315.68 1739.75 1310.54 1731.31 1305.43C1744.06 1288.36 1756.68 1271.06 1769.76 1254.05C1829.9 1176.06 1894.54 1100.19 1970.11 1029.44C2012.33 989.87 2057.22 952.523 2107.53 919.52C2192.09 864.193 2285.03 826.185 2382.36 797.938C2448.28 778.78 2513.78 771.613 2578.21 773.767C2626.98 775.357 2673.51 782.238 2718.47 792.099C2808.18 811.843 2890.25 842.074 2969.74 875.886C3049 909.556 3124.47 947.429 3197.46 987.878C3190.4 994.682 3183.3 1001.52 3176.17 1008.38C3086.41 955.203 2990.96 908.245 2888.31 869.322C2824.1 845.074 2757.55 824.549 2685.92 811.677C2620.38 799.928 2552.73 795.364 2480.77 804.515C2373.67 818.074 2272.96 856.208 2176.17 906.392C2108.58 941.32 2051.7 987.273 1998.66 1036.16C1941.62 1088.51 1891.4 1144.24 1845.78 1202.16C1814.96 1241.23 1786.33 1281.32 1756.75 1320.84V1320.84Z" fill="#D3D3D3"/>
<path d="M2359.39 41.3441C2368.46 46.8382 2377.57 52.356 2386.71 57.8975C2383.99 60.3317 2381.39 62.837 2378.56 65.2002C2353.53 86.9169 2328.17 108.584 2303.37 130.443C2231.49 193.607 2160.07 257.055 2083.28 316.488C2029.32 358.161 1974.47 398.845 1913.99 433.548C1847.46 471.687 1776.8 502.033 1705.15 530.57C1611.68 567.802 1517.85 584.408 1423.48 582.398C1363.17 581.071 1304.41 575.85 1247.75 565.852C1145.83 547.932 1044.72 528.684 943.512 509.53C858.501 493.54 773.738 476.943 688.899 460.603C694.422 455.283 699.913 449.994 705.372 444.736C729.358 449.597 753.152 454.643 777.309 459.154C907.231 483.766 1036.98 508.727 1167.32 532.384C1237.09 545.031 1308.69 554.255 1382.91 556.905C1458.95 559.452 1535.9 553.776 1614.62 533.149C1672.2 518.159 1727.19 495.55 1782.23 472.52C1858.82 440.326 1930.09 401.124 1995.83 353.438C2077.04 294.718 2152.27 231.463 2224.12 165.563C2269.17 124.133 2314.26 82.7266 2359.39 41.3441V41.3441Z" fill="#D3D3D3"/>
<path d="M1800.73 1347.49C1793.23 1342.95 1785.72 1338.4 1778.22 1333.85C1778.56 1333.15 1778.91 1332.45 1779.46 1331.73C1829.86 1258.73 1883.55 1186.96 1946.69 1118.79C1985.18 1077.12 2026.74 1037.45 2072.55 1000.51C2138.96 947.032 2214.21 906.925 2296.45 875.733C2401.27 835.852 2505.34 816.379 2609.07 824.82C2678.27 830.472 2742.82 844.645 2804.34 863.939C2934.02 904.426 3050.19 960.311 3156.72 1027.13C3149.27 1034.31 3141.85 1041.45 3134.47 1048.57C3072.15 1006.12 3004.17 969.311 2931.23 937.653C2857.25 905.52 2779.23 879.109 2694.33 862.277C2574.7 838.609 2450.99 845.727 2321.27 893.039C2262.86 914.336 2205.87 938.145 2153.89 971.65C2082.56 1017.91 2022.88 1072.45 1968.79 1130.98C1907.61 1197.45 1855.53 1267.48 1807.32 1338.94C1805.3 1341.8 1802.86 1344.7 1800.73 1347.49V1347.49Z" fill="#D3D3D3"/>
<path d="M2311.44 12.2868C2319.65 17.26 2327.82 22.2094 2335.95 27.1352C2334.43 28.7836 2333.02 30.5031 2331.48 31.9877C2306.41 55.9488 2281.44 79.8171 2256.49 103.849C2193.06 164.576 2128.69 224.735 2058.28 280.779C2010.04 318.965 1960.4 355.551 1906.59 388.247C1857.48 417.893 1804.44 439.722 1751.61 462.278C1629.53 514.371 1506.77 539.15 1382.39 535.881C1306.52 533.896 1233.47 525.152 1161.6 513.798C1020.5 491.485 882.176 463.746 743.851 436.006C735.752 434.424 727.825 432.493 719.919 430.725C725.442 425.405 730.966 420.086 736.489 414.766C738.964 415.509 741.363 416.51 744.031 417.068C826.809 433.369 909.32 450.112 992.655 465.692C1082.65 482.586 1173.62 497.804 1267.66 506.568C1338.71 513.193 1411 515.127 1486.12 506.981C1576.07 497.243 1663.45 471.585 1749.83 437.316C1826.94 406.646 1899.51 370.049 1965.39 322.598C2020.46 282.804 2073.38 241.403 2121.5 196.341C2181.59 139.937 2239.89 82.3043 2298.93 25.2613C2303.26 21.0858 2307.25 16.6972 2311.44 12.2868V12.2868Z" fill="#D3D3D3"/>
<path d="M3113.08 1069.15C3104.99 1076.95 3096.89 1084.74 3088.8 1092.54C3080.5 1086 3072.61 1079.25 3064.12 1072.89C3003.76 1028.01 2934.97 991.61 2859.88 961.831C2794.26 935.818 2725.05 915.646 2649.49 905.082C2495.85 883.632 2345.11 918.811 2197.9 999.518C2137.35 1032.82 2087.43 1076.49 2041.26 1122.43C1981.55 1181.78 1931.45 1245.3 1886.02 1310.58C1871.38 1331.49 1857.73 1352.55 1843.64 1373.48C1836.21 1368.98 1828.75 1364.46 1821.24 1359.91C1822.96 1357.52 1824.63 1355.11 1826.27 1352.68C1848.53 1321.12 1869.99 1289.23 1893.15 1257.91C1944.14 1188.74 2001.34 1122.43 2070.33 1062.04C2130.65 1009.1 2197.92 964.913 2276.37 933.692C2353.28 903.208 2430.97 880.446 2511 874.372C2581.81 868.906 2647.98 875.446 2711.32 889.493C2852.81 920.811 2974.61 975.874 3082.8 1047.18C3093.31 1054.16 3103.06 1061.88 3113.08 1069.15V1069.15Z" fill="#D3D3D3"/>
<path d="M1883.73 1397.78C1876.54 1393.42 1869.39 1389.08 1862.28 1384.77C1879.14 1360.07 1895.65 1335.16 1913.05 1310.48C1959.61 1244.67 2010.85 1180.79 2073.21 1121.83C2119.34 1078.13 2169.42 1037.43 2229.82 1007.22C2370.75 936.611 2512.78 907.795 2655.35 929.792C2728.5 941.015 2795.56 961.24 2858.74 987.585C2928.88 1016.79 2992.69 1052.28 3046.81 1097.47C3053.29 1103.01 3059.84 1108.54 3066.45 1114.06C3057.08 1123.09 3047.7 1132.12 3038.32 1141.15C3030.87 1133.62 3023.8 1125.7 3015.95 1118.37C2971.54 1077.25 2917.53 1044.83 2857.75 1017.97C2789.71 987.477 2716.59 964.633 2635.13 954.422C2497.15 937.019 2361.03 967.307 2227.39 1037.34C2170.62 1067.18 2123.64 1106.74 2080.23 1148.91C2023.07 1204.52 1975.55 1264.46 1932.24 1326.04C1915.47 1349.74 1899.82 1373.82 1883.73 1397.78Z" fill="#D3D3D3"/>
<path d="M2269.47 -13.1472C2276.66 -8.78976 2283.81 -4.45605 2290.93 -0.146007C2268.63 22.6205 2246.44 45.4581 2224.03 68.1535C2166 127.168 2106.43 185.096 2040.75 239.165C2003.75 269.652 1965.14 298.559 1924.71 325.91C1863.96 366.947 1796.96 396.338 1727.97 422.862C1605.36 469.948 1482.48 493.743 1358.81 491.812C1299.2 490.911 1241.03 486.045 1183.85 478.756C1066.86 463.947 953.271 442.733 840.447 419.866C810.464 413.79 780.846 407.18 751.036 400.755C756.495 395.497 761.986 390.208 767.509 384.888C847.428 400.816 926.927 417.7 1007.46 432.487C1097.84 449.009 1189.87 461.546 1285.05 467.374C1419.04 475.556 1554.12 459.15 1691.02 410.443C1744.93 391.263 1798.66 371.52 1849.18 344.387C1923.27 304.481 1987.72 255.102 2049.04 202.473C2101.48 157.304 2149.89 109.392 2197.14 60.9328C2221.25 36.2395 2245.36 11.5461 2269.47 -13.1472V-13.1472Z" fill="#D3D3D3"/>
<path d="M783.019 369.949C788.864 364.32 794.708 358.691 800.553 353.061C802.697 353.756 804.744 354.543 806.964 354.981C853.248 365.04 899.071 375.726 945.775 384.829C1043.15 403.627 1142.47 418.16 1245.47 425.1C1391.9 434.921 1539.72 416.718 1689.88 363.343C1762.83 337.411 1833.71 307.956 1897.67 264.933C1946.58 231.989 1991.87 196.095 2034.71 157.961C2091.34 107.469 2143.06 54.158 2194.19 0.49154C2206.13 -11.9262 2218.28 -24.3656 2230.43 -36.805C2237.23 -32.6844 2244.07 -28.5402 2250.95 -24.3722C2249.39 -23.0514 2247.82 -21.7307 2246.38 -20.3388C2221.35 5.61001 2196.65 31.6082 2171.38 57.4149C2114.55 115.644 2055.83 172.572 1990.29 225.217C1912.66 287.471 1827.6 338.867 1729.87 374.125C1637.12 407.715 1543.88 434.052 1448.22 443.957C1365.59 452.536 1286.01 450.265 1207.81 442.791C1092.42 431.969 981.1 412.433 871.426 389.66C841.657 383.563 812.424 376.581 783.019 369.949V369.949Z" fill="#D3D3D3"/>
<path d="M2192.33 -59.8945C2198.81 -55.9634 2205.3 -52.0323 2211.79 -48.1011C2186.15 -21.0113 2160.62 6.14964 2134.72 32.9336C2078.06 91.5613 2019.02 148.604 1951.97 200.489C1899.91 240.891 1844.42 277.408 1781.6 304.797C1720.22 331.543 1657.35 353.46 1593.16 370.949C1475.86 402.807 1361.09 412.168 1247.93 406.179C1136.29 400.202 1029.37 383.787 924.761 362.572C888.121 355.183 852.264 346.303 816.063 338.123C822.164 332.246 828.298 326.338 834.463 320.4C836.099 320.787 837.735 321.173 839.371 321.56C965.824 353.745 1096.99 376.238 1235.39 384.221C1387.62 392.871 1540.77 370.64 1695.15 313.931C1756.32 291.44 1815.81 265.965 1870.35 230.54C1935.6 188.298 1993.96 140.369 2046.84 88.5161C2096.54 39.7254 2143.92 -10.3224 2192.33 -59.8945V-59.8945Z" fill="#D3D3D3"/>
<path d="M850.936 304.533C857.744 297.976 864.552 291.419 871.36 284.862C873.759 285.863 876.062 286.956 878.537 287.7C984.479 316.828 1095.77 335.288 1212.96 342.359C1368.61 351.573 1525.23 328.574 1683.39 270.982C1764.53 241.395 1840.24 203.981 1907.47 152.659C1962.79 110.598 2013.24 65.1337 2060.39 17.5159C2092.76 -15.321 2124.31 -48.6552 2156.1 -81.8474C2162.35 -78.0583 2168.57 -74.293 2174.74 -70.5513C2172.37 -67.9039 2170.24 -65.1145 2167.86 -62.6309C2146.77 -40.4864 2125.83 -18.107 2104.51 3.89546C2050.33 59.9469 1993.78 114.414 1929.67 163.842C1881.01 201.324 1829.39 235.042 1771.22 260.713C1598.34 336.898 1423.87 372.666 1247.51 365.562C1133 360.872 1023.95 344.674 918.363 320.903C895.755 315.82 873.373 309.966 850.936 304.533V304.533Z" fill="#D3D3D3"/>
<path d="M888.796 268.068C895.925 261.201 903.054 254.335 910.183 247.469C910.962 247.638 911.954 247.786 912.637 248.049C999.517 275.3 1092.4 291.07 1189.88 297.991C1354.39 309.704 1520.01 284.296 1686.63 220.947C1753.3 195.738 1816.46 165.078 1873.3 123.941C1927.96 84.3542 1977.5 41.057 2023.57 -4.79206C2056.42 -37.3448 2087.97 -70.679 2119.99 -103.729C2126.48 -99.798 2133 -95.8431 2139.57 -91.8646C2137.53 -90.0799 2135.48 -88.2952 2133.67 -86.3684C2121.64 -73.8579 2109.84 -61.2053 2097.8 -48.6949C2043.28 8.05539 1987.32 63.7893 1923.28 114.621C1876.74 151.722 1827.21 185.807 1771.11 211.517C1629.74 276.112 1484.87 314.096 1336.08 322.19C1230.47 327.88 1130.31 318.577 1032.95 301.604C983.487 292.947 935.423 281.659 888.796 268.068L888.796 268.068Z" fill="#D3D3D3"/>
<path d="M2048.71 -146.924C2055.2 -142.993 2061.68 -139.062 2068.17 -135.131C2062.91 -129.7 2057.54 -124.34 2052.17 -118.98C2003.37 -69.0365 1953.26 -20.0385 1897.13 25.0086C1851.4 61.6946 1802.75 94.9444 1747.38 120.497C1619.18 179.768 1487.08 216.119 1351.36 227.447C1215.43 238.797 1089.81 225.862 978.1 182.053C987.798 172.712 997.496 163.372 1007.19 154.031C1009.61 155.195 1011.96 156.616 1014.48 157.687C1070.43 181.615 1133.1 194.652 1199.79 200.144C1353.7 212.688 1508.8 186.194 1664.61 127.181C1723.84 104.721 1781.07 78.481 1832.89 42.9173C1914.84 -13.3888 1982.79 -79.3888 2048.71 -146.924V-146.924Z" fill="#D3D3D3"/>
<path d="M930.51 227.89C938.602 220.096 946.695 212.302 954.787 204.508C958.765 206.011 962.55 207.7 966.507 209.04C1179.86 277.104 1409.02 270.702 1655.18 182.991C1708.88 163.832 1761.33 141.647 1810.04 112.209C1867.29 77.6692 1918.08 37.3979 1964.33 -6.22855C2005.55 -45.1938 2044.77 -85.3668 2084.82 -125.043C2090.99 -121.301 2097.17 -117.559 2103.34 -113.817C2043.47 -50.6315 1982.52 11.7513 1912.31 68.5216C1868.09 104.307 1821.03 137.312 1767.58 162.669C1642.43 222.128 1512.65 258.824 1379.08 273.418C1266.84 285.674 1160.73 278.968 1058.42 260.507C1014.02 252.497 971.157 242.091 930.51 227.89V227.89Z" fill="#D3D3D3"/>
</g>
</g>
</g>
</svg>
