<svg width="328" height="99" viewBox="0 0 328 99" fill="none" xmlns="http://www.w3.org/2000/svg">
<g clip-path="url(#clip0_7_1110)">
<path d="M84 0H15C6.71573 0 0 6.71573 0 15V84C0 92.2843 6.71573 99 15 99H84C92.2843 99 99 92.2843 99 84V15C99 6.71573 92.2843 0 84 0Z" fill="#F9F9F9"/>
<path d="M42.2521 62.4872L42.2412 62.4981L42.2319 62.4872L24.8417 45.0908C22.4613 47.4713 21.124 50.6999 21.124 54.0664C21.124 57.4328 22.4613 60.6614 24.8417 63.0419L42.2319 80.4383L42.2412 80.4275L42.2521 80.4383L59.6423 63.0481C62.0227 60.6676 63.3599 57.439 63.3599 54.0726C63.3599 50.7061 62.0227 47.4775 59.6423 45.097L42.2521 62.4872Z" fill="#1A1A1A"/>
<path d="M77.0404 38.1878L59.6564 20.7976L59.6455 20.8085L59.6362 20.7976L42.2414 38.1878C39.861 40.5683 38.5237 43.7969 38.5237 47.1634C38.5237 50.5298 39.861 53.7584 42.2414 56.1389L59.6316 38.7487L59.6409 38.7379C59.6441 38.7419 59.6477 38.7455 59.6517 38.7487L77.0404 56.1389C78.2194 54.9604 79.1547 53.5612 79.7928 52.0211C80.4309 50.4811 80.7593 48.8304 80.7593 47.1634C80.7593 45.4963 80.4309 43.8457 79.7928 42.3056C79.1547 40.7655 78.2194 39.3663 77.0404 38.1878Z" fill="#C1272D"/>
</g>
<path d="M128.33 60.8C126.71 60.8 125.14 60.57 123.62 60.11C122.12 59.65 120.93 59.04 120.05 58.28L121.4 55.25C122.26 55.93 123.31 56.49 124.55 56.93C125.81 57.35 127.07 57.56 128.33 57.56C129.89 57.56 131.05 57.31 131.81 56.81C132.59 56.31 132.98 55.65 132.98 54.83C132.98 54.23 132.76 53.74 132.32 53.36C131.9 52.96 131.36 52.65 130.7 52.43C130.04 52.21 129.14 51.96 128 51.68C126.4 51.3 125.1 50.92 124.1 50.54C123.12 50.16 122.27 49.57 121.55 48.77C120.85 47.95 120.5 46.85 120.5 45.47C120.5 44.31 120.81 43.26 121.43 42.32C122.07 41.36 123.02 40.6 124.28 40.04C125.56 39.48 127.12 39.2 128.96 39.2C130.24 39.2 131.5 39.36 132.74 39.68C133.98 40 135.05 40.46 135.95 41.06L134.72 44.09C133.8 43.55 132.84 43.14 131.84 42.86C130.84 42.58 129.87 42.44 128.93 42.44C127.39 42.44 126.24 42.7 125.48 43.22C124.74 43.74 124.37 44.43 124.37 45.29C124.37 45.89 124.58 46.38 125 46.76C125.44 47.14 125.99 47.44 126.65 47.66C127.31 47.88 128.21 48.13 129.35 48.41C130.91 48.77 132.19 49.15 133.19 49.55C134.19 49.93 135.04 50.52 135.74 51.32C136.46 52.12 136.82 53.2 136.82 54.56C136.82 55.72 136.5 56.77 135.86 57.71C135.24 58.65 134.29 59.4 133.01 59.96C131.73 60.52 130.17 60.8 128.33 60.8ZM149.327 39.5C151.147 39.5 152.727 39.8 154.067 40.4C155.427 41 156.467 41.86 157.187 42.98C157.907 44.1 158.267 45.43 158.267 46.97C158.267 48.49 157.907 49.82 157.187 50.96C156.467 52.08 155.427 52.94 154.067 53.54C152.727 54.14 151.147 54.44 149.327 54.44H144.587V60.5H140.687V39.5H149.327ZM149.147 51.14C150.847 51.14 152.137 50.78 153.017 50.06C153.897 49.34 154.337 48.31 154.337 46.97C154.337 45.63 153.897 44.6 153.017 43.88C152.137 43.16 150.847 42.8 149.147 42.8H144.587V51.14H149.147ZM172.265 60.8C170.125 60.8 168.195 60.34 166.475 59.42C164.755 58.48 163.405 57.19 162.425 55.55C161.445 53.89 160.955 52.04 160.955 50C160.955 47.96 161.445 46.12 162.425 44.48C163.405 42.82 164.755 41.53 166.475 40.61C168.195 39.67 170.125 39.2 172.265 39.2C174.405 39.2 176.335 39.67 178.055 40.61C179.775 41.53 181.125 42.81 182.105 44.45C183.085 46.09 183.575 47.94 183.575 50C183.575 52.06 183.085 53.91 182.105 55.55C181.125 57.19 179.775 58.48 178.055 59.42C176.335 60.34 174.405 60.8 172.265 60.8ZM172.265 57.38C173.665 57.38 174.925 57.07 176.045 56.45C177.165 55.81 178.045 54.93 178.685 53.81C179.325 52.67 179.645 51.4 179.645 50C179.645 48.6 179.325 47.34 178.685 46.22C178.045 45.08 177.165 44.2 176.045 43.58C174.925 42.94 173.665 42.62 172.265 42.62C170.865 42.62 169.605 42.94 168.485 43.58C167.365 44.2 166.485 45.08 165.845 46.22C165.205 47.34 164.885 48.6 164.885 50C164.885 51.4 165.205 52.67 165.845 53.81C166.485 54.93 167.365 55.81 168.485 56.45C169.605 57.07 170.865 57.38 172.265 57.38ZM201.449 60.5L197.159 54.35C196.979 54.37 196.709 54.38 196.349 54.38H191.609V60.5H187.709V39.5H196.349C198.169 39.5 199.749 39.8 201.089 40.4C202.449 41 203.489 41.86 204.209 42.98C204.929 44.1 205.289 45.43 205.289 46.97C205.289 48.55 204.899 49.91 204.119 51.05C203.359 52.19 202.259 53.04 200.819 53.6L205.649 60.5H201.449ZM201.359 46.97C201.359 45.63 200.919 44.6 200.039 43.88C199.159 43.16 197.869 42.8 196.169 42.8H191.609V51.17H196.169C197.869 51.17 199.159 50.81 200.039 50.09C200.919 49.35 201.359 48.31 201.359 46.97ZM213.619 42.8H206.659V39.5H224.479V42.8H217.519V60.5H213.619V42.8ZM233.711 60.8C232.091 60.8 230.521 60.57 229.001 60.11C227.501 59.65 226.311 59.04 225.431 58.28L226.781 55.25C227.641 55.93 228.691 56.49 229.931 56.93C231.191 57.35 232.451 57.56 233.711 57.56C235.271 57.56 236.431 57.31 237.191 56.81C237.971 56.31 238.361 55.65 238.361 54.83C238.361 54.23 238.141 53.74 237.701 53.36C237.281 52.96 236.741 52.65 236.081 52.43C235.421 52.21 234.521 51.96 233.381 51.68C231.781 51.3 230.481 50.92 229.481 50.54C228.501 50.16 227.651 49.57 226.931 48.77C226.231 47.95 225.881 46.85 225.881 45.47C225.881 44.31 226.191 43.26 226.811 42.32C227.451 41.36 228.401 40.6 229.661 40.04C230.941 39.48 232.501 39.2 234.341 39.2C235.621 39.2 236.881 39.36 238.121 39.68C239.361 40 240.431 40.46 241.331 41.06L240.101 44.09C239.181 43.55 238.221 43.14 237.221 42.86C236.221 42.58 235.251 42.44 234.311 42.44C232.771 42.44 231.621 42.7 230.861 43.22C230.121 43.74 229.751 44.43 229.751 45.29C229.751 45.89 229.961 46.38 230.381 46.76C230.821 47.14 231.371 47.44 232.031 47.66C232.691 47.88 233.591 48.13 234.731 48.41C236.291 48.77 237.571 49.15 238.571 49.55C239.571 49.93 240.421 50.52 241.121 51.32C241.841 52.12 242.201 53.2 242.201 54.56C242.201 55.72 241.881 56.77 241.241 57.71C240.621 58.65 239.671 59.4 238.391 59.96C237.111 60.52 235.551 60.8 233.711 60.8ZM265.268 39.5L256.118 60.5H252.278L243.098 39.5H247.328L254.318 55.7L261.368 39.5H265.268ZM267.484 39.5H271.384V60.5H267.484V39.5ZM283.574 60.8C281.954 60.8 280.384 60.57 278.864 60.11C277.364 59.65 276.174 59.04 275.294 58.28L276.644 55.25C277.504 55.93 278.554 56.49 279.794 56.93C281.054 57.35 282.314 57.56 283.574 57.56C285.134 57.56 286.294 57.31 287.054 56.81C287.834 56.31 288.224 55.65 288.224 54.83C288.224 54.23 288.004 53.74 287.564 53.36C287.144 52.96 286.604 52.65 285.944 52.43C285.284 52.21 284.384 51.96 283.244 51.68C281.644 51.3 280.344 50.92 279.344 50.54C278.364 50.16 277.514 49.57 276.794 48.77C276.094 47.95 275.744 46.85 275.744 45.47C275.744 44.31 276.054 43.26 276.674 42.32C277.314 41.36 278.264 40.6 279.524 40.04C280.804 39.48 282.364 39.2 284.204 39.2C285.484 39.2 286.744 39.36 287.984 39.68C289.224 40 290.294 40.46 291.194 41.06L289.964 44.09C289.044 43.55 288.084 43.14 287.084 42.86C286.084 42.58 285.114 42.44 284.174 42.44C282.634 42.44 281.484 42.7 280.724 43.22C279.984 43.74 279.614 44.43 279.614 45.29C279.614 45.89 279.824 46.38 280.244 46.76C280.684 47.14 281.234 47.44 281.894 47.66C282.554 47.88 283.454 48.13 284.594 48.41C286.154 48.77 287.434 49.15 288.434 49.55C289.434 49.93 290.284 50.52 290.984 51.32C291.704 52.12 292.064 53.2 292.064 54.56C292.064 55.72 291.744 56.77 291.104 57.71C290.484 58.65 289.534 59.4 288.254 59.96C286.974 60.52 285.414 60.8 283.574 60.8ZM295.931 39.5H299.831V60.5H295.931V39.5ZM315.321 60.8C313.181 60.8 311.251 60.34 309.531 59.42C307.811 58.48 306.461 57.19 305.481 55.55C304.501 53.89 304.011 52.04 304.011 50C304.011 47.96 304.501 46.12 305.481 44.48C306.461 42.82 307.811 41.53 309.531 40.61C311.251 39.67 313.181 39.2 315.321 39.2C317.461 39.2 319.391 39.67 321.111 40.61C322.831 41.53 324.181 42.81 325.161 44.45C326.141 46.09 326.631 47.94 326.631 50C326.631 52.06 326.141 53.91 325.161 55.55C324.181 57.19 322.831 58.48 321.111 59.42C319.391 60.34 317.461 60.8 315.321 60.8ZM315.321 57.38C316.721 57.38 317.981 57.07 319.101 56.45C320.221 55.81 321.101 54.93 321.741 53.81C322.381 52.67 322.701 51.4 322.701 50C322.701 48.6 322.381 47.34 321.741 46.22C321.101 45.08 320.221 44.2 319.101 43.58C317.981 42.94 316.721 42.62 315.321 42.62C313.921 42.62 312.661 42.94 311.541 43.58C310.421 44.2 309.541 45.08 308.901 46.22C308.261 47.34 307.941 48.6 307.941 50C307.941 51.4 308.261 52.67 308.901 53.81C309.541 54.93 310.421 55.81 311.541 56.45C312.661 57.07 313.921 57.38 315.321 57.38Z" fill="#BD2025"/>
<defs>
<clipPath id="clip0_7_1110">
<rect width="99" height="99" fill="white"/>
</clipPath>
</defs>
</svg>
